<svg width="11" height="11" viewBox="0 0 11 11" fill="none" xmlns="http://www.w3.org/2000/svg">
<g id="bx:heart">
<path id="Vector" d="M5.32184 2.08695C4.84979 1.65291 4.23193 1.41201 3.59067 1.41199C3.25125 1.41234 2.91526 1.47981 2.60202 1.61052C2.28878 1.74123 2.00448 1.93259 1.76549 2.1736C0.746105 3.19731 0.746538 4.79851 1.76635 5.81789L4.94276 8.9943C5.01641 9.12384 5.15851 9.20745 5.32184 9.20745C5.3889 9.2068 5.45487 9.19043 5.51446 9.15966C5.57405 9.12888 5.62559 9.08457 5.66495 9.03026L8.87732 5.81789C9.89713 4.79808 9.89713 3.19731 8.87645 2.17187C8.63758 1.9313 8.35351 1.74033 8.04058 1.60992C7.72764 1.47951 7.39202 1.41225 7.05301 1.41199C6.41176 1.41209 5.79392 1.65298 5.32184 2.08695ZM8.26387 2.78445C8.941 3.46504 8.94144 4.52818 8.26474 5.20531L5.32184 8.14821L2.37893 5.20531C1.70223 4.52818 1.70267 3.46504 2.37807 2.78618C2.70732 2.45866 3.13794 2.27844 3.59067 2.27844C4.04339 2.27844 4.47228 2.45866 4.79893 2.78531L5.01554 3.00193C5.05574 3.04219 5.10349 3.07414 5.15604 3.09593C5.2086 3.11773 5.26494 3.12895 5.32184 3.12895C5.37873 3.12895 5.43507 3.11773 5.48763 3.09593C5.54018 3.07414 5.58793 3.04219 5.62813 3.00193L5.84474 2.78531C6.49978 2.13158 7.6097 2.13331 8.26387 2.78445Z" fill="#98A1B0"/>
</g>
</svg>
