<svg width="129" height="46" viewBox="0 0 129 46" fill="none" xmlns="http://www.w3.org/2000/svg">
<rect width="129" height="46" fill="#F5F5F5"/>
<g clip-path="url(#clip0_334_7993)">
<rect width="375" height="847" transform="translate(-122 -145)" fill="#FAFBFB"/>
<g clip-path="url(#clip1_334_7993)">
<g opacity="0.33">
<mask id="mask0_334_7993" style="mask-type:luminance" maskUnits="userSpaceOnUse" x="-422" y="-197" width="2014" height="1187">
<path d="M1591.87 -197H-422V989.06H1591.87V-197Z" fill="white"/>
</mask>
<g mask="url(#mask0_334_7993)">
<mask id="mask1_334_7993" style="mask-type:luminance" maskUnits="userSpaceOnUse" x="19" y="-197" width="443" height="442">
<path d="M461.511 -197H19.7557V244.863H461.511V-197Z" fill="white"/>
</mask>
<g mask="url(#mask1_334_7993)">
<mask id="mask2_334_7993" style="mask-type:luminance" maskUnits="userSpaceOnUse" x="19" y="-197" width="443" height="442">
<path d="M461.511 -197H19.7557V244.863H461.511V-197Z" fill="white"/>
</mask>
<g mask="url(#mask2_334_7993)">
<path d="M461.511 -197H19.7557V244.863H461.511V-197Z" fill="white"/>
<path d="M124.519 20.1874C123.985 20.1874 123.523 20.136 123.151 20.0293C121.06 19.4165 120.092 16.8664 118.625 13.0078C118.104 11.6359 117.515 10.0782 116.787 8.38612C116.645 8.05402 116.495 7.71401 116.341 7.3661C114.961 4.27839 112.784 2.14349 110.483 -0.113983C107.831 -2.71541 105.084 -5.40381 103.452 -9.72898C101.293 -15.4418 101.23 -20.6961 103.27 -24.9185C105.131 -28.7771 108.72 -31.7225 113.369 -33.213C118.017 -34.7035 122.645 -34.3911 126.4 -32.3313C130.515 -30.0778 133.515 -25.7645 135.076 -19.8619C136.258 -15.3904 135.59 -11.6069 134.938 -7.94593C134.376 -4.77125 133.843 -1.77052 134.515 1.54255C134.57 1.81534 134.625 2.08813 134.685 2.35302C135.104 4.29816 135.554 6.00214 135.95 7.50448C137.009 11.5173 137.705 14.1662 136.365 15.8781C134.784 17.8944 128.123 20.1874 124.531 20.1874H124.519ZM119.088 -32.8572C117.353 -32.8572 115.558 -32.5685 113.752 -31.9913C109.44 -30.6115 106.127 -27.8994 104.416 -24.361C102.507 -20.4075 102.582 -15.6355 104.645 -10.1836C106.179 -6.12334 108.823 -3.53379 111.376 -1.03121C113.665 1.21045 116.029 3.52723 117.507 6.84029C117.665 7.19216 117.815 7.53611 117.961 7.87612C118.697 9.59591 119.293 11.1655 119.819 12.5492C121.151 16.0481 122.029 18.3609 123.507 18.7958C125.882 19.4916 133.843 16.9969 135.341 15.0874C136.289 13.8776 135.657 11.4738 134.697 7.83261C134.297 6.31841 133.843 4.59863 133.428 2.65745C133.365 2.34907 133.305 2.07629 133.25 1.79954C132.531 -1.75469 133.108 -5.01637 133.669 -8.16733C134.293 -11.6899 134.942 -15.3351 133.831 -19.5298C132.341 -25.1675 129.629 -29.0934 125.78 -31.2006C123.776 -32.2958 121.495 -32.8492 119.092 -32.8492L119.088 -32.8572Z" fill="#BCBCBC"/>
<path d="M126.91 10.177C122.25 11.6715 118.78 11.6992 118.562 11.6992C118.207 11.6992 117.922 11.4145 117.918 11.0587C117.918 10.7029 118.203 10.4182 118.558 10.4143C118.633 10.4143 126.317 10.3352 134.06 5.43674C134.361 5.24697 134.756 5.3379 134.946 5.63442C135.135 5.93489 135.044 6.33026 134.748 6.52003C132.009 8.25168 129.305 9.40611 126.91 10.1731V10.177Z" fill="#BCBCBC"/>
<path d="M127.95 13.3596C123.855 14.6722 120.669 14.858 119.803 14.8857C119.448 14.8976 119.151 14.6169 119.143 14.265C119.131 13.9092 119.412 13.6127 119.764 13.6048C121.076 13.5652 127.973 13.1343 135.088 8.6312C135.388 8.44143 135.784 8.53236 135.973 8.82888C136.163 9.12934 136.072 9.52469 135.776 9.71446C133.048 11.4382 130.345 12.5887 127.953 13.3557L127.95 13.3596Z" fill="#BCBCBC"/>
<path d="M128.894 16.2813C125.21 17.4634 122.258 17.7362 121.1 17.7995C120.744 17.8193 120.444 17.5465 120.424 17.1946C120.404 16.8388 120.677 16.5383 121.029 16.5186C122.863 16.4197 129.357 15.7634 135.997 11.5806C136.25 11.4027 136.602 11.4304 136.823 11.6557C137.072 11.9087 137.064 12.3159 136.811 12.565C136.78 12.5927 136.744 12.6243 136.705 12.6481C136.697 12.652 136.693 12.6559 136.685 12.6599C133.973 14.3718 131.278 15.5143 128.89 16.2813H128.894Z" fill="#BCBCBC"/>
<path d="M124.519 20.1874C123.985 20.1874 123.523 20.136 123.151 20.0293C121.06 19.4165 120.092 16.8664 118.625 13.0078C118.104 11.6359 117.515 10.0782 116.787 8.38612C116.708 8.20425 116.72 7.99472 116.819 7.82076C116.918 7.64681 117.088 7.5282 117.286 7.50053C120.104 7.08541 125.258 5.7847 133.799 1.94186C133.977 1.86279 134.179 1.86673 134.353 1.95371C134.527 2.04069 134.649 2.2028 134.689 2.39257C135.1 4.30608 135.55 6.01003 135.946 7.51238C137.005 11.5252 137.701 14.1741 136.361 15.886C134.78 17.9023 128.12 20.1953 124.527 20.1953L124.519 20.1874ZM118.282 8.63123C118.874 10.0585 119.372 11.371 119.823 12.5492C121.155 16.0481 122.033 18.3609 123.511 18.7958C125.886 19.4916 133.847 16.9969 135.345 15.0874C136.293 13.8776 135.661 11.4738 134.701 7.83261C134.353 6.52004 133.969 5.05725 133.602 3.42839C126.096 6.75727 121.222 8.10541 118.286 8.63123H118.282Z" fill="#BCBCBC"/>
<path d="M122.74 7.40959C122.574 7.40959 122.416 7.33446 122.313 7.19609L112.056 -6.44756C111.467 -7.23036 111.4 -8.28199 111.89 -9.132C112.491 -10.1797 113.159 -10.8123 113.866 -11.006C114.677 -11.2313 115.712 -11.0337 116.712 -10.8399C117.55 -10.6778 118.412 -10.5118 119.032 -10.6185C120.384 -10.8439 120.811 -11.4448 121.345 -12.2079C121.74 -12.7693 122.191 -13.4097 123.04 -13.9395C125.25 -15.3153 126.582 -15.1611 127.305 -14.7895C128.1 -14.3823 128.582 -13.5086 128.661 -12.3304L129.768 4.53537C129.784 4.77258 129.637 4.99397 129.412 5.07304L122.918 7.374C122.859 7.39377 122.799 7.40564 122.74 7.40564V7.40959ZM114.693 -10.0334C114.491 -10.0334 114.309 -10.0136 114.151 -9.97015C113.732 -9.8555 113.258 -9.36526 112.815 -8.59037C112.542 -8.11595 112.578 -7.52292 112.91 -7.08407L122.93 6.2433L128.673 4.20722L127.594 -12.2553C127.558 -12.8128 127.392 -13.5362 126.819 -13.8328C126.143 -14.1807 125.001 -13.892 123.606 -13.0262C122.942 -12.6111 122.59 -12.1169 122.222 -11.5872C121.625 -10.7371 121.005 -9.85946 119.21 -9.55899C118.4 -9.42457 117.44 -9.60642 116.511 -9.78828C115.874 -9.91084 115.222 -10.0374 114.693 -10.0374V-10.0334Z" fill="#BCBCBC"/>
<path d="M27.6885 50.9143C27.6134 50.9143 27.5462 50.9104 27.4869 50.8985C27.0522 50.8234 26.0324 50.6455 15.1826 31.4194C9.98098 22.2038 3.86239 10.8729 2.23393 7.0459L1.90588 6.27891L2.728 6.15635C5.46319 5.75705 9.77152 3.97006 14.7636 1.89841C15.981 1.39236 17.2419 0.870472 18.5383 0.344653C20.483 -0.446054 22.3447 -1.15769 24.147 -1.84955C28.3605 -3.4626 32.0008 -4.85819 34.0364 -6.26564L34.7557 -6.76379L35.0166 -5.9296C35.1905 -5.37611 39.2775 7.73383 42.823 20.65C48.6056 41.7184 47.5226 42.5921 46.9416 43.0626C44.6174 44.9366 30.3723 50.9104 27.6885 50.9104V50.9143ZM27.7913 49.6373H27.7992C29.6648 49.6373 43.4277 44.1775 46.0838 42.1019C47.0957 39.7219 39.7479 13.6167 34.0364 -4.74354C31.8229 -3.41516 28.4475 -2.12234 24.6056 -0.651622C22.8111 0.0362935 20.9534 0.747917 19.0206 1.53467C17.7241 2.06049 16.4672 2.58235 15.2537 3.08841C10.645 4.99796 6.6055 6.67428 3.73593 7.27917C7.56597 15.633 25.5225 47.712 27.7913 49.6373Z" fill="#BCBCBC"/>
<path d="M1.70432 7.52424C1.10353 7.52424 0.585769 7.44122 0.150986 7.2554C-0.469568 6.99447 -0.912284 6.55167 -1.1613 5.93887C-2.05458 3.7407 0.605497 1.92604 2.68455 0.755792L2.82684 0.676716H2.98891C5.07982 0.63718 9.04428 -1.00749 13.6372 -2.90518C14.6332 -3.31635 15.6648 -3.74335 16.7281 -4.17824C18.321 -4.82661 19.8467 -5.41174 21.3249 -5.98105C25.4712 -7.57432 29.0561 -8.95014 30.3012 -10.3181L30.4317 -10.4604L30.6174 -10.5078C32.8467 -11.0692 35.906 -11.5713 36.7558 -9.47991C37.0522 -8.75246 37.0483 -8.03293 36.7439 -7.33711C35.6807 -4.88987 31.0364 -3.11076 24.6095 -0.647708C22.8151 0.0402069 20.9573 0.751826 19.0245 1.53463C17.7281 2.06045 16.4672 2.58626 15.2538 3.08836C9.21423 5.59095 4.55808 7.52424 1.70432 7.52424ZM3.17467 1.9537C0.712213 3.36116 -0.347066 4.53933 0.0244765 5.45655C0.143054 5.74911 0.340706 5.94679 0.641101 6.0733C2.66482 6.91936 8.26956 4.59466 14.7597 1.90626C15.9771 1.40021 17.2379 0.87834 18.5383 0.348566C20.483 -0.442141 22.3447 -1.15377 24.1471 -1.84564C29.819 -4.01613 34.7163 -5.89406 35.5621 -7.8471C35.7242 -8.22664 35.7242 -8.59038 35.5621 -8.99364C35.2182 -9.83969 33.7202 -9.94248 31.1036 -9.30596C29.5739 -7.77594 26.1154 -6.44755 21.7755 -4.77916C20.3052 -4.2138 18.7834 -3.62869 17.2024 -2.98822C16.1431 -2.55728 15.1115 -2.13029 14.1194 -1.71912C9.32885 0.26555 5.52254 1.83905 3.17076 1.9537H3.17467Z" fill="#BCBCBC"/>
<path d="M2.9019 1.95372C2.41178 1.95372 1.99283 1.88651 1.6371 1.73628C1.12326 1.52279 0.759579 1.15512 0.554045 0.653016C-0.0506993 -0.833513 1.12324 -2.52561 4.13906 -4.5261C6.54222 -6.11938 10.1509 -7.91035 14.566 -9.7092C18.9336 -11.4843 22.7715 -12.706 25.6648 -13.2437C29.2221 -13.9039 31.2418 -13.5204 31.8308 -12.0655C32.0719 -11.4764 32.068 -10.8873 31.819 -10.3141C30.9494 -8.30173 27.0996 -6.82707 21.7755 -4.77914C20.3051 -4.21378 18.7834 -3.63262 17.2023 -2.9882C16.1391 -2.55726 15.1075 -2.13027 14.1154 -1.71515C9.10744 0.360459 5.24973 1.95768 2.9019 1.95768V1.95372ZM28.5818 -12.2711C27.8466 -12.2711 26.9414 -12.1762 25.9019 -11.9825C23.0916 -11.4606 19.3407 -10.2627 15.0521 -8.51919C10.7122 -6.75591 7.18256 -5.0045 4.85054 -3.45867C2.55805 -1.94051 1.42362 -0.616061 1.74377 0.166739C1.81887 0.348601 1.93745 0.467196 2.13508 0.55022C3.7003 1.20255 8.30113 -0.699092 13.6292 -2.90516C14.6252 -3.31633 15.6608 -3.74728 16.724 -4.17822C18.3169 -4.82659 19.8426 -5.41171 21.3169 -5.97707C25.9691 -7.76407 29.9889 -9.30595 30.645 -10.8241C30.7557 -11.0811 30.7557 -11.3143 30.645 -11.5832C30.4592 -12.0378 29.728 -12.2711 28.5818 -12.2711Z" fill="#BCBCBC"/>
<path d="M31.7874 37.8281C31.8941 38.1365 32.0285 38.8204 31.9969 39.6823C31.9218 41.6195 30.8862 42.8451 29.4079 42.7858C27.9217 42.7265 26.8941 41.3309 26.9771 39.2356C27.0048 38.5437 27.1589 37.9388 27.2893 37.6265L27.9573 37.919C27.8269 38.1918 27.7004 38.6267 27.6767 39.2632C27.6214 40.7379 28.4079 41.5642 29.4158 41.6037C30.5344 41.6472 31.2577 40.7181 31.3091 39.4451C31.3368 38.7809 31.2222 38.3381 31.1233 38.002L31.7913 37.8281H31.7874Z" fill="#BCBCBC"/>
<path d="M29.7992 30.2334C31.5858 30.3046 32.3012 31.9808 32.2419 33.5306C32.1747 35.2702 31.1629 36.5749 29.6372 36.5156C28.0206 36.4523 27.1273 35.0093 27.1945 33.2302C27.2656 31.3839 28.321 30.178 29.7992 30.2334ZM29.653 35.3334C30.7123 35.373 31.5423 34.5941 31.5858 33.4555C31.6292 32.3406 30.8743 31.4748 29.7834 31.4313C28.9652 31.3997 27.9059 31.9018 27.8506 33.2855C27.7953 34.6653 28.732 35.3018 29.649 35.3374L29.653 35.3334Z" fill="#BCBCBC"/>
<path d="M27.3051 20.9148C27.317 20.5709 27.3763 20.3455 27.4435 20.1637L26.7716 19.9937C26.6925 20.2151 26.6095 20.5551 26.5937 20.982C26.5739 21.5158 26.6767 22.1009 26.9811 22.5556C27.3526 23.117 27.9613 23.3502 28.6372 23.3739L28.8664 23.3818L28.8269 24.4374L29.4949 24.4651L29.5344 23.4095L33.6965 23.5716L33.7399 22.4053L29.5779 22.2432L29.6372 20.7053L28.9692 20.6776L28.9099 22.2314L28.649 22.2195C27.9099 22.1918 27.2617 21.8993 27.3012 20.9148H27.3051Z" fill="#BCBCBC"/>
<path d="M27.1194 25.7224C27.1312 25.3785 27.1905 25.1531 27.2577 24.9713L26.5858 24.8013C26.5067 25.0227 26.4237 25.3627 26.4079 25.7897C26.3881 26.3234 26.4909 26.9085 26.7952 27.3632C27.1668 27.9246 27.7755 28.1578 28.4514 28.1815L28.6806 28.1895L28.6411 29.245L29.309 29.2727L29.3486 28.2171L33.5106 28.3792L33.5542 27.2129L29.3921 27.0508L29.4514 25.5129L28.7834 25.4852L28.7241 27.039L28.4632 27.0271C27.7241 26.9994 27.0759 26.7069 27.1154 25.7224H27.1194Z" fill="#BCBCBC"/>
<path d="M30.4751 18.2265C31.6648 18.2463 32.1905 17.2579 32.2379 16.0876C32.2696 15.2495 32.1787 14.7434 32.0561 14.3006L32.6925 14.1267C32.815 14.5418 32.9494 15.2534 32.9099 16.2774C32.8348 18.2542 31.8071 19.4007 30.3525 19.3414C28.894 19.2861 27.7913 18.1 27.8664 16.226C27.9494 14.1267 29.3565 13.6246 30.2459 13.6602C30.4237 13.6681 30.566 13.6997 30.6529 13.7155L30.4791 18.2305L30.4751 18.2265ZM29.981 14.779C29.4237 14.7434 28.5423 15.0281 28.4909 16.3446C28.4435 17.5267 29.2419 18.0763 29.8506 18.1909L29.981 14.779Z" fill="#BCBCBC"/>
<path d="M30.7321 11.5766C31.9218 11.5964 32.4475 10.608 32.4949 9.43773C32.5266 8.59958 32.4357 8.09354 32.3131 7.65074L32.9495 7.47679C33.072 7.89191 33.2064 8.60355 33.1669 9.62751C33.0918 11.6043 32.0641 12.7508 30.6096 12.6915C29.1511 12.6362 28.0483 11.4501 28.1234 9.57611C28.2064 7.47679 29.6135 6.97469 30.5028 7.01027C30.6807 7.01818 30.823 7.04979 30.91 7.06561L30.7361 11.5806L30.7321 11.5766ZM30.238 8.12911C29.6807 8.09353 28.7993 8.37819 28.7479 9.69472C28.7005 10.8768 29.4989 11.4264 30.1076 11.541L30.238 8.12911Z" fill="#BCBCBC"/>
</g>
</g>
<mask id="mask3_334_7993" style="mask-type:luminance" maskUnits="userSpaceOnUse" x="-422" y="-197" width="442" height="442">
<path d="M19.7557 -197H-422V244.863H19.7557V-197Z" fill="white"/>
</mask>
<g mask="url(#mask3_334_7993)">
<mask id="mask4_334_7993" style="mask-type:luminance" maskUnits="userSpaceOnUse" x="-422" y="-197" width="442" height="442">
<path d="M19.7557 -197H-422V244.863H19.7557V-197Z" fill="white"/>
</mask>
<g mask="url(#mask4_334_7993)">
<path d="M19.7557 -197H-422V244.863H19.7557V-197Z" fill="white"/>
<path d="M27.6885 50.9143C27.6134 50.9143 27.5462 50.9104 27.4869 50.8985C27.0522 50.8234 26.0324 50.6455 15.1826 31.4194C9.98098 22.2038 3.86239 10.8729 2.23393 7.0459L1.90588 6.27891L2.728 6.15635C5.46319 5.75705 9.77152 3.97006 14.7636 1.89841C15.981 1.39236 17.2419 0.870472 18.5383 0.344653C20.483 -0.446054 22.3447 -1.15769 24.147 -1.84955C28.3605 -3.4626 32.0008 -4.85819 34.0364 -6.26564L34.7557 -6.76379L35.0166 -5.9296C35.1905 -5.37611 39.2775 7.73383 42.823 20.65C48.6056 41.7184 47.5226 42.5921 46.9416 43.0626C44.6174 44.9366 30.3723 50.9104 27.6885 50.9104V50.9143ZM27.7913 49.6373H27.7992C29.6648 49.6373 43.4277 44.1775 46.0838 42.1019C47.0957 39.7219 39.7479 13.6167 34.0364 -4.74354C31.8229 -3.41516 28.4475 -2.12234 24.6056 -0.651622C22.8111 0.0362935 20.9534 0.747917 19.0206 1.53467C17.7241 2.06049 16.4672 2.58235 15.2537 3.08841C10.645 4.99796 6.6055 6.67428 3.73593 7.27917C7.56597 15.633 25.5225 47.712 27.7913 49.6373Z" fill="#BCBCBC"/>
<path d="M1.70432 7.52424C1.10353 7.52424 0.585769 7.44122 0.150986 7.2554C-0.469568 6.99447 -0.912284 6.55167 -1.1613 5.93887C-2.05458 3.7407 0.605497 1.92604 2.68455 0.755792L2.82684 0.676716H2.98891C5.07982 0.63718 9.04428 -1.00749 13.6372 -2.90518C14.6332 -3.31635 15.6648 -3.74335 16.7281 -4.17824C18.321 -4.82661 19.8467 -5.41174 21.3249 -5.98105C25.4712 -7.57432 29.0561 -8.95014 30.3012 -10.3181L30.4317 -10.4604L30.6174 -10.5078C32.8467 -11.0692 35.906 -11.5713 36.7558 -9.47991C37.0522 -8.75246 37.0483 -8.03293 36.7439 -7.33711C35.6807 -4.88987 31.0364 -3.11076 24.6095 -0.647708C22.8151 0.0402069 20.9573 0.751826 19.0245 1.53463C17.7281 2.06045 16.4672 2.58626 15.2538 3.08836C9.21423 5.59095 4.55808 7.52424 1.70432 7.52424ZM3.17467 1.9537C0.712213 3.36116 -0.347066 4.53933 0.0244765 5.45655C0.143054 5.74911 0.340706 5.94679 0.641101 6.0733C2.66482 6.91936 8.26956 4.59466 14.7597 1.90626C15.9771 1.40021 17.2379 0.87834 18.5383 0.348566C20.483 -0.442141 22.3447 -1.15377 24.1471 -1.84564C29.819 -4.01613 34.7163 -5.89406 35.5621 -7.8471C35.7242 -8.22664 35.7242 -8.59038 35.5621 -8.99364C35.2182 -9.83969 33.7202 -9.94248 31.1036 -9.30596C29.5739 -7.77594 26.1154 -6.44755 21.7755 -4.77916C20.3052 -4.2138 18.7834 -3.62869 17.2024 -2.98822C16.1431 -2.55728 15.1115 -2.13029 14.1194 -1.71912C9.32885 0.26555 5.52254 1.83905 3.17076 1.9537H3.17467Z" fill="#BCBCBC"/>
<path d="M2.9019 1.95372C2.41178 1.95372 1.99283 1.88651 1.6371 1.73628C1.12326 1.52279 0.759579 1.15512 0.554045 0.653016C-0.0506993 -0.833513 1.12324 -2.52561 4.13906 -4.5261C6.54222 -6.11938 10.1509 -7.91035 14.566 -9.7092C18.9336 -11.4843 22.7715 -12.706 25.6648 -13.2437C29.2221 -13.9039 31.2418 -13.5204 31.8308 -12.0655C32.0719 -11.4764 32.068 -10.8873 31.819 -10.3141C30.9494 -8.30173 27.0996 -6.82707 21.7755 -4.77914C20.3051 -4.21378 18.7834 -3.63262 17.2023 -2.9882C16.1391 -2.55726 15.1075 -2.13027 14.1154 -1.71515C9.10744 0.360459 5.24973 1.95768 2.9019 1.95768V1.95372ZM28.5818 -12.2711C27.8466 -12.2711 26.9414 -12.1762 25.9019 -11.9825C23.0916 -11.4606 19.3407 -10.2627 15.0521 -8.51919C10.7122 -6.75591 7.18256 -5.0045 4.85054 -3.45867C2.55805 -1.94051 1.42362 -0.616061 1.74377 0.166739C1.81887 0.348601 1.93745 0.467196 2.13508 0.55022C3.7003 1.20255 8.30113 -0.699092 13.6292 -2.90516C14.6252 -3.31633 15.6608 -3.74728 16.724 -4.17822C18.3169 -4.82659 19.8426 -5.41171 21.3169 -5.97707C25.9691 -7.76407 29.9889 -9.30595 30.645 -10.8241C30.7557 -11.0811 30.7557 -11.3143 30.645 -11.5832C30.4592 -12.0378 29.728 -12.2711 28.5818 -12.2711Z" fill="#BCBCBC"/>
</g>
</g>
</g>
</g>
<rect x="-122.702" y="-59.7015" width="375.403" height="672.403" fill="white"/>
<rect x="-122.702" y="-59.7015" width="375.403" height="672.403" stroke="#E6E6E6" stroke-width="0.596958"/>
<g clip-path="url(#clip2_334_7993)">
<path d="M62.1934 30.7042C60.595 31.59 58.9967 32.0606 57.3983 32.0882C55.8 32.0882 54.3394 31.7284 53.0166 30.9533C51.6938 30.1782 50.5915 29.0156 49.7372 27.4931C49.0758 26.3028 48.6625 25.0848 48.4971 23.8945C48.3318 22.7042 48.3869 21.5416 48.69 20.4343C48.9932 19.327 49.4892 18.3028 50.2333 17.3616C50.9773 16.4205 51.8867 15.6454 53.0166 15.0364C54.0363 14.4551 55.0834 14.1229 56.1582 14.0398C57.233 13.9568 58.2802 14.0398 59.2722 14.372C60.2643 14.7042 61.2013 15.2025 62.0556 15.9222C62.9099 16.6419 63.6264 17.5554 64.2051 18.6627L64.8941 19.9637L52.6032 26.8841L50.5364 24.808L60.5399 19.1886L60.3746 19.936L60.0163 19.2717C59.6305 18.718 59.162 18.3305 58.5833 18.0537C58.0046 17.7769 57.3708 17.6661 56.7369 17.6938C56.0755 17.6938 55.4417 17.9153 54.8354 18.2474C53.8985 18.7734 53.182 19.4101 52.741 20.1298C52.2725 20.8495 52.0796 21.6523 52.1348 22.5381C52.1899 23.4239 52.493 24.3651 53.0717 25.3893C53.6229 26.3858 54.3118 27.1056 55.1386 27.6315C55.9653 28.1298 56.8747 28.3789 57.8668 28.3512C58.8589 28.3235 59.8785 28.019 60.8982 27.4377C61.6147 27.0502 62.1934 26.5519 62.6894 25.9706C63.1579 25.3893 63.5713 24.6142 63.9295 23.6177L67.016 25.0848C66.768 25.8599 66.4097 26.6073 65.9137 27.327C65.4452 28.0467 64.8941 28.7111 64.2602 29.2924C63.6264 29.9014 62.965 30.3997 62.2485 30.7872L62.1934 30.7042Z" fill="#4A494A"/>
<path d="M69.3033 32.4481V9.19556H78.5903C80.2714 9.19556 81.7871 9.47237 83.1374 10.026C84.4877 10.5796 85.6452 11.3824 86.6372 12.4066C87.6293 13.4308 88.3458 14.6765 88.897 16.0883C89.4206 17.5 89.6962 19.0779 89.6962 20.7941C89.6962 22.5104 89.4206 24.0883 88.897 25.5277C88.3734 26.9671 87.6293 28.1851 86.6648 29.2094C85.7003 30.2336 84.5428 31.0363 83.165 31.59C81.7871 32.1436 80.2714 32.4204 78.5903 32.4204H69.3033V32.4481ZM73.5748 29.0986L73.2717 28.462H78.425C79.4998 28.462 80.4643 28.2959 81.3461 27.936C82.228 27.5761 82.9169 27.0779 83.5232 26.4135C84.1019 25.7492 84.5704 24.9464 84.8735 24.0052C85.2042 23.064 85.342 21.9845 85.342 20.8218C85.342 19.6592 85.1767 18.5796 84.8735 17.6384C84.5428 16.6973 84.1019 15.8945 83.4956 15.2301C82.8894 14.5658 82.1729 14.0675 81.3186 13.7077C80.4643 13.3478 79.4998 13.1817 78.425 13.1817H73.1614L73.5473 12.6281V29.0986H73.5748Z" fill="#4A494A"/>
<path d="M101.519 32.9187C99.7824 32.9187 98.2116 32.5312 96.8613 31.7284C95.511 30.9256 94.4086 29.8737 93.637 28.4897C92.8654 27.1056 92.452 25.5554 92.452 23.8115C92.452 22.0675 92.8378 20.4897 93.637 19.1333C94.4086 17.7492 95.4834 16.6696 96.8613 15.8945C98.2392 15.1194 99.7824 14.7042 101.519 14.7042C103.255 14.7042 104.77 15.0918 106.148 15.8945C107.526 16.6696 108.601 17.7492 109.373 19.1333C110.144 20.5174 110.558 22.0675 110.558 23.8115C110.558 25.5554 110.172 27.1333 109.373 28.4897C108.601 29.8737 107.526 30.9533 106.148 31.7284C104.77 32.5035 103.227 32.9187 101.519 32.9187ZM101.519 29.2924C102.456 29.2924 103.31 29.071 104.054 28.5727C104.798 28.1021 105.404 27.4378 105.818 26.6073C106.259 25.7769 106.451 24.8357 106.424 23.8115C106.424 22.7596 106.231 21.7907 105.818 20.9603C105.377 20.1298 104.798 19.4931 104.054 19.0226C103.31 18.552 102.456 18.3305 101.519 18.3305C100.582 18.3305 99.7273 18.5796 98.9557 19.0502C98.1841 19.5208 97.6054 20.1852 97.192 21.0156C96.7786 21.8461 96.5582 22.7873 96.5582 23.8115C96.5582 24.8357 96.7786 25.7769 97.192 26.6073C97.6054 27.4378 98.2116 28.1021 98.9557 28.5727C99.7273 29.0433 100.582 29.2924 101.519 29.2924Z" fill="#4A494A"/>
<path d="M121.636 32.9187C120.01 32.9187 118.549 32.5312 117.226 31.7284C115.931 30.9256 114.912 29.8461 114.14 28.462C113.368 27.0779 113.01 25.5277 113.01 23.8115C113.01 22.0952 113.396 20.545 114.14 19.161C114.884 17.7769 115.904 16.6973 117.226 15.8945C118.522 15.0918 119.982 14.7042 121.636 14.7042C123.179 14.7042 124.584 15.0087 125.88 15.6177C127.175 16.2267 128.167 17.0572 128.828 18.0814L126.624 20.7942C126.293 20.3236 125.88 19.9084 125.356 19.5208C124.86 19.1333 124.309 18.8565 123.73 18.635C123.151 18.4136 122.573 18.3028 122.022 18.3028C121.029 18.3028 120.148 18.552 119.404 19.0226C118.66 19.4931 118.053 20.1575 117.612 20.9879C117.171 21.8184 116.951 22.7596 116.951 23.7838C116.951 24.808 117.171 25.7492 117.64 26.5796C118.081 27.4101 118.715 28.0468 119.486 28.545C120.258 29.0433 121.112 29.2647 122.077 29.2647C122.683 29.2647 123.234 29.1817 123.758 28.9879C124.281 28.7942 124.805 28.5173 125.301 28.1852C125.797 27.8253 126.265 27.3824 126.679 26.8564L128.883 29.5692C128.167 30.5381 127.12 31.3409 125.797 31.9499C124.474 32.5589 123.096 32.891 121.663 32.891L121.636 32.9187Z" fill="#4A494A"/>
<path d="M14.4635 45.5414V40.6417C24.1363 40.6417 31.9903 32.7525 31.9903 23.0362C31.9903 13.32 24.1363 5.40306 14.4635 5.40306V0.503418C26.837 0.503418 36.8956 10.6072 36.8956 23.0086C36.8956 35.4099 26.837 45.5414 14.4635 45.5414Z" fill="url(#paint0_linear_334_7993)"/>
<path d="M27.3879 25.3614C27.3879 25.3614 27.636 25.2507 27.7737 25.1677C27.1124 30.2057 23.144 35.4376 16.8884 36.7663C12.5618 37.6798 7.90452 36.4618 4.62513 33.4722C2.03469 31.0915 0.353665 27.6867 0.0505285 24.1711C-0.473071 17.9428 3.16457 12.1296 8.97928 9.91511C17.2191 6.73173 26.3132 11.9359 27.7737 20.6833C27.8289 20.9601 27.7462 21.1262 27.4982 21.2646C23.8605 23.3684 20.2505 25.4722 16.6128 27.576C14.6562 28.6832 12.2587 28.4618 10.6052 26.9947C12.176 26.0812 13.7192 25.1954 15.2625 24.3095C17.4671 23.0362 19.6717 21.7352 21.8764 20.4895C22.2071 20.2957 22.2346 20.1296 22.0968 19.7698C20.6363 16.0327 16.8333 13.7905 12.7823 14.3165C8.95172 14.8148 5.81012 17.9981 5.31408 21.9012C4.81804 25.8044 7.24313 29.8736 10.9083 31.2299C13.4988 32.1711 16.0065 31.9497 18.4041 30.5933C21.4079 28.8493 24.3841 27.1054 27.3879 25.3614Z" fill="url(#paint1_linear_334_7993)"/>
<path d="M17.3294 19.05L8.84159 23.9773C8.31799 21.9012 9.44787 19.5206 11.4045 18.441C13.306 17.3891 15.9515 17.6383 17.3019 19.0777L17.3294 19.05Z" fill="url(#paint2_linear_334_7993)"/>
</g>
</g>
</g>
<defs>
<linearGradient id="paint0_linear_334_7993" x1="14.4635" y1="23.0362" x2="36.8681" y2="23.0362" gradientUnits="userSpaceOnUse">
<stop offset="0.12" stop-color="#73297F"/>
<stop offset="0.93" stop-color="#E25598"/>
</linearGradient>
<linearGradient id="paint1_linear_334_7993" x1="-0.00458728" y1="23.0362" x2="27.7737" y2="23.0362" gradientUnits="userSpaceOnUse">
<stop offset="0.07" stop-color="#A61140"/>
<stop offset="0.27" stop-color="#BF194B"/>
<stop offset="0.52" stop-color="#D92155"/>
<stop offset="0.75" stop-color="#E8265C"/>
<stop offset="0.93" stop-color="#EE285F"/>
</linearGradient>
<linearGradient id="paint2_linear_334_7993" x1="8.73136" y1="20.877" x2="17.3294" y2="20.877" gradientUnits="userSpaceOnUse">
<stop offset="0.07" stop-color="#A61140"/>
<stop offset="0.27" stop-color="#BF194B"/>
<stop offset="0.52" stop-color="#D92155"/>
<stop offset="0.75" stop-color="#E8265C"/>
<stop offset="0.93" stop-color="#EE285F"/>
</linearGradient>
<clipPath id="clip0_334_7993">
<rect width="375" height="847" fill="white" transform="translate(-122 -145)"/>
</clipPath>
<clipPath id="clip1_334_7993">
<rect width="375" height="809" fill="white" transform="translate(-122 -107)"/>
</clipPath>
<clipPath id="clip2_334_7993">
<rect width="332" height="518" fill="white" transform="translate(-101)"/>
</clipPath>
</defs>
</svg>
