<svg width="22" height="20" viewBox="0 0 22 20" fill="none" xmlns="http://www.w3.org/2000/svg">
<path id="Vector" d="M20.6797 14.8193C20.625 14.8193 20.2114 14.4741 19.439 13.7837C18.6665 13.0933 18.2803 11.0732 18.2803 7.72363C18.2803 6.54785 18.1162 5.48828 17.7881 4.54492C17.4463 3.60156 16.9644 2.79834 16.3423 2.13525C15.7202 1.47217 14.958 0.962891 14.0557 0.607422C13.1533 0.251953 12.1348 0.0742188 11 0.0742188C9.86523 0.0742188 8.84668 0.251953 7.94434 0.607422C7.04199 0.962891 6.27979 1.47217 5.65771 2.13525C5.03564 2.79834 4.55371 3.60156 4.21191 4.54492C3.88379 5.48828 3.71973 6.54785 3.71973 7.72363C3.71973 11.1279 3.32324 13.1616 2.53027 13.8247C1.7373 14.4878 1.34766 14.8193 1.36133 14.8193C1.12891 14.8193 0.927246 14.9014 0.756348 15.0654C0.585449 15.2295 0.5 15.4346 0.5 15.6807C0.5 15.9131 0.585449 16.1113 0.756348 16.2754C0.927246 16.4395 1.12891 16.5215 1.36133 16.5215H6.83691C7.02832 17.5059 7.51367 18.3228 8.29297 18.9722C9.07227 19.6216 9.97461 19.9463 11 19.9463C12.0254 19.9463 12.9243 19.6216 13.6968 18.9722C14.4692 18.3228 14.958 17.5127 15.1631 16.542V16.5215H20.6592C20.8916 16.5215 21.0898 16.4395 21.2539 16.2754C21.418 16.1113 21.5 15.9131 21.5 15.6807C21.5 15.4346 21.418 15.2295 21.2539 15.0654C21.0898 14.9014 20.8916 14.8193 20.6592 14.8193H20.6797ZM11 18.2236C10.4531 18.2236 9.96094 18.0664 9.52344 17.752C9.08594 17.4375 8.78516 17.0342 8.62109 16.542L8.60059 16.5215H13.3994C13.2217 17.0273 12.9141 17.4375 12.4766 17.752C12.0391 18.0664 11.5469 18.2236 11 18.2236ZM3.9248 14.8193C4.12988 14.5049 4.32129 14.1357 4.49902 13.7119C4.67676 13.2744 4.83398 12.7686 4.9707 12.1943C5.10742 11.6201 5.2168 10.9639 5.29883 10.2256C5.38086 9.4873 5.42188 8.65332 5.42188 7.72363C5.42188 6.80762 5.54492 5.98047 5.79102 5.24219C6.03711 4.50391 6.39941 3.87842 6.87793 3.36572C7.35645 2.85303 7.94434 2.45996 8.6416 2.18652C9.3252 1.91309 10.1113 1.77637 11 1.77637C11.8887 1.77637 12.6748 1.90625 13.3584 2.16602C14.0557 2.43945 14.6436 2.8291 15.1221 3.33496C15.6006 3.84082 15.9629 4.46289 16.209 5.20117C16.4551 5.93945 16.5781 6.78027 16.5781 7.72363C16.5781 8.68066 16.6191 9.52832 16.7012 10.2666C16.7832 11.0049 16.8926 11.6611 17.0293 12.2354C17.166 12.8096 17.3232 13.3086 17.501 13.7324C17.6787 14.1426 17.8701 14.5049 18.0752 14.8193H3.9248Z" fill="#6C757D"/>
</svg>
