<svg width="20" height="21" viewBox="0 0 20 21" fill="none" xmlns="http://www.w3.org/2000/svg">
<g id="icons8_sorting 1">
<path id="Vector" d="M3.33333 3C3.11232 3 2.90036 3.0878 2.74408 3.24408C2.5878 3.40036 2.5 3.61232 2.5 3.83333C2.5 4.05435 2.5878 4.26631 2.74408 4.42259C2.90036 4.57887 3.11232 4.66667 3.33333 4.66667C3.55435 4.66667 3.76631 4.57887 3.92259 4.42259C4.07887 4.26631 4.16667 4.05435 4.16667 3.83333C4.16667 3.61232 4.07887 3.40036 3.92259 3.24408C3.76631 3.0878 3.55435 3 3.33333 3ZM5.83333 3V4.66667H17.5V3H5.83333ZM3.33333 6.33333C3.11232 6.33333 2.90036 6.42113 2.74408 6.57741C2.5878 6.73369 2.5 6.94565 2.5 7.16667C2.5 7.38768 2.5878 7.59964 2.74408 7.75592C2.90036 7.9122 3.11232 8 3.33333 8C3.55435 8 3.76631 7.9122 3.92259 7.75592C4.07887 7.59964 4.16667 7.38768 4.16667 7.16667C4.16667 6.94565 4.07887 6.73369 3.92259 6.57741C3.76631 6.42113 3.55435 6.33333 3.33333 6.33333ZM5.83333 6.33333V8H15.8333V6.33333H5.83333ZM3.33333 9.66667C3.11232 9.66667 2.90036 9.75446 2.74408 9.91074C2.5878 10.067 2.5 10.279 2.5 10.5C2.5 10.721 2.5878 10.933 2.74408 11.0893C2.90036 11.2455 3.11232 11.3333 3.33333 11.3333C3.55435 11.3333 3.76631 11.2455 3.92259 11.0893C4.07887 10.933 4.16667 10.721 4.16667 10.5C4.16667 10.279 4.07887 10.067 3.92259 9.91074C3.76631 9.75446 3.55435 9.66667 3.33333 9.66667ZM5.83333 9.66667V11.3333H14.1667V9.66667H5.83333ZM3.33333 13C3.11232 13 2.90036 13.0878 2.74408 13.2441C2.5878 13.4004 2.5 13.6123 2.5 13.8333C2.5 14.0543 2.5878 14.2663 2.74408 14.4226C2.90036 14.5789 3.11232 14.6667 3.33333 14.6667C3.55435 14.6667 3.76631 14.5789 3.92259 14.4226C4.07887 14.2663 4.16667 14.0543 4.16667 13.8333C4.16667 13.6123 4.07887 13.4004 3.92259 13.2441C3.76631 13.0878 3.55435 13 3.33333 13ZM5.83333 13V14.6667H12.5V13H5.83333ZM3.33333 16.3333C3.11232 16.3333 2.90036 16.4211 2.74408 16.5774C2.5878 16.7337 2.5 16.9457 2.5 17.1667C2.5 17.3877 2.5878 17.5996 2.74408 17.7559C2.90036 17.9122 3.11232 18 3.33333 18C3.55435 18 3.76631 17.9122 3.92259 17.7559C4.07887 17.5996 4.16667 17.3877 4.16667 17.1667C4.16667 16.9457 4.07887 16.7337 3.92259 16.5774C3.76631 16.4211 3.55435 16.3333 3.33333 16.3333ZM5.83333 16.3333V18H10.8333V16.3333H5.83333Z" fill="white"/>
</g>
</svg>
