<svg width="16" height="17" viewBox="0 0 16 17" fill="none" xmlns="http://www.w3.org/2000/svg">
<g id="u:eye">
<path id="Vector" d="M14.1542 8.43108L14.1551 8.43329C14.1643 8.45432 14.169 8.47702 14.169 8.49996C14.169 8.5229 14.1643 8.5456 14.1551 8.56662L14.1542 8.56884C12.8627 11.5674 10.4797 13.3333 8.00004 13.3333C5.52041 13.3333 3.13743 11.5674 1.84593 8.56884L1.84593 8.56884L1.84497 8.56663C1.83579 8.5456 1.83105 8.5229 1.83105 8.49996C1.83105 8.47702 1.83579 8.45432 1.84497 8.43329L1.84497 8.43329L1.84593 8.43108C3.13743 5.4325 5.52041 3.66663 8.00004 3.66663C10.4797 3.66663 12.8627 5.4325 14.1542 8.43108ZM2.28022 8.28865L2.18169 8.49996L2.28022 8.71127C3.48618 11.2975 5.63114 13 8.00004 13C10.3689 13 12.5139 11.2975 13.7199 8.71127L13.8184 8.49996L13.7199 8.28865C12.5139 5.70246 10.3689 3.99996 8.00004 3.99996C5.63114 3.99996 3.48618 5.70246 2.28022 8.28865ZM6.79631 6.69844C7.15262 6.46037 7.57152 6.33329 8.00004 6.33329C8.57468 6.33329 9.12578 6.56157 9.53211 6.96789C9.93844 7.37422 10.1667 7.92532 10.1667 8.49996C10.1667 8.92848 10.0396 9.34739 9.80156 9.70369C9.56349 10.06 9.2251 10.3377 8.82919 10.5017C8.43329 10.6657 7.99764 10.7086 7.57735 10.625C7.15706 10.5414 6.77099 10.335 6.46798 10.032C6.16497 9.72901 5.95861 9.34295 5.87501 8.92265C5.79141 8.50236 5.83432 8.06672 5.99831 7.67081C6.16229 7.27491 6.44 6.93652 6.79631 6.69844ZM6.9815 10.0243C7.28299 10.2258 7.63745 10.3333 8.00004 10.3333C8.48628 10.3333 8.95259 10.1401 9.29641 9.79632C9.64022 9.4525 9.83338 8.98619 9.83338 8.49996C9.83338 8.13736 9.72585 7.7829 9.52441 7.48141C9.32296 7.17992 9.03663 6.94494 8.70163 6.80618C8.36663 6.66742 7.99801 6.63111 7.64238 6.70185C7.28675 6.77259 6.96008 6.9472 6.70368 7.2036C6.44729 7.45999 6.27268 7.78666 6.20194 8.14229C6.1312 8.49793 6.1675 8.86655 6.30627 9.20155C6.44503 9.53654 6.68001 9.82287 6.9815 10.0243Z" fill="black" stroke="#6B7280"/>
</g>
</svg>
