<svg width="20" height="21" viewBox="0 0 20 21" fill="none" xmlns="http://www.w3.org/2000/svg">
<g id="u:file-info-alt">
<path id="Vector" d="M15.9435 13.522L15.9563 13.5278L15.9693 13.5329C16.005 13.5467 16.0381 13.5666 16.067 13.5917C16.0967 13.6271 16.1209 13.6668 16.1387 13.7095L16.1391 13.7105C16.1647 13.7712 16.1716 13.8381 16.1592 13.9028C16.1475 13.9632 16.1194 14.0191 16.0781 14.0644C16.0419 14.0953 16.0012 14.1203 15.9572 14.1387L15.9572 14.1387L15.954 14.1401C15.9144 14.1569 15.8719 14.166 15.8289 14.1667C15.7855 14.1667 15.7426 14.1583 15.7025 14.142C15.6627 14.1257 15.6265 14.1019 15.5957 14.0719C15.5505 14.0253 15.5199 13.9666 15.5076 13.9028C15.4951 13.8381 15.5021 13.7712 15.5276 13.7105L15.528 13.7095C15.5459 13.6668 15.5701 13.6271 15.5998 13.5917C15.6287 13.5666 15.6617 13.5467 15.6975 13.5329L15.7105 13.5278L15.7232 13.522C15.7578 13.5064 15.7954 13.4982 15.8334 13.4982C15.8714 13.4982 15.9089 13.5064 15.9435 13.522ZM11.1113 2.77671L16.0984 7.76377C16.1047 7.77077 16.1109 7.77799 16.1167 7.78542V7.80685L16.1428 7.8844C16.1536 7.9164 16.1616 7.94925 16.1667 7.98259V7.98264V7.98278V7.98293V7.98307V7.98321V7.98335V7.98349V7.98363V7.98377V7.98391V7.98405V7.98418V7.98432V7.98446V7.98459V7.98472V7.98486V7.98499V7.98512V7.98525V7.98538V7.98551V7.98564V7.98576V7.98589V7.98602V7.98614V7.98626V7.98639V7.98651V7.98663V7.98675V7.98687V7.98699V7.98711V7.98723V7.98735V7.98747V7.98758V7.9877V7.98781V7.98793V7.98804V7.98815V7.98827V7.98838V7.98849V7.9886V7.98871V7.98881V7.98892V7.98903V7.98914V7.98924V7.98935V7.98945V7.98955V7.98966V7.98976V7.98986V7.98996V7.99006V7.99016V7.99026V7.99036V7.99046V7.99055V7.99065V7.99075V7.99084V7.99093V7.99103V7.99112V7.99121V7.99131V7.9914V7.99149V7.99158V7.99167V7.99176V7.99184V7.99193V7.99202V7.9921V7.99219V7.99227V7.99236V7.99244V7.99252V7.99261V7.99269V7.99277V7.99285V7.99293V7.99301V7.99309V7.99317V7.99324V7.99332V7.9934V7.99347V7.99355V7.99362V7.9937V7.99377V7.99384V7.99392V7.99399V7.99406V7.99413V7.9942V7.99427V7.99434V7.99441V7.99447V7.99454V7.99461V7.99468V7.99474V7.99481V7.99487V7.99493V7.995V7.99506V7.99512V7.99519V7.99525V7.99531V7.99537V7.99543V7.99549V7.99555V7.9956V7.99566V7.99572V7.99578V7.99583V7.99589V7.99594V7.996V7.99605V7.99611V7.99616V7.99621V7.99627V7.99632V7.99637V7.99642V7.99647V7.99652V7.99657V7.99662V7.99667V7.99672V7.99676V7.99681V7.99686V7.9969V7.99695V7.997V7.99704V7.99708V7.99713V7.99717V7.99722V7.99726V7.9973V7.99734V7.99738V7.99742V7.99747V7.99751V7.99755V7.99758V7.99762V7.99766V7.9977V7.99774V7.99777V7.99781V7.99785V7.99788V7.99792V7.99795V7.99799V7.99802V7.99806V7.99809V7.99813V7.99816V7.99819V7.99822V7.99825V7.99829V7.99832V7.99835V7.99838V7.99841V7.99844V7.99847V7.99849V7.99852V7.99855V7.99858V7.99861V7.99863V7.99866V7.99869V7.99871V7.99874V7.99876V7.99879V7.99881V7.99884V7.99886V7.99888V7.99891V7.99893V7.99895V7.99898V7.999V7.99902V7.99904V7.99906V7.99908V7.9991V7.99912V7.99914V7.99916V7.99918V7.9992V7.99922V7.99924V7.99926V7.99928V7.99929V7.99931V7.99933V7.99934V7.99936V7.99938V7.99939V7.99941V7.99942V7.99944V7.99945V7.99947V7.99948V7.9995V7.99951V7.99952V7.99954V7.99955V7.99956V7.99958V7.99959V7.9996V7.99961V7.99963V7.99964V7.99965V7.99966V7.99967V7.99968V7.99969V7.9997V7.99971V7.99972V7.99973V7.99974V7.99975V7.99976V7.99977V7.99978V7.99978V7.99979V7.9998V7.99981V7.99981V7.99982V7.99984V7.99985V7.99986V7.99988V7.99989V7.9999V7.99991V7.99992V7.99993V7.99994V7.99994V7.99996V7.99997V7.99997V7.99998V7.99999V8V8.00001V8.00002V10.5C16.1667 10.5884 16.1316 10.6732 16.0691 10.7357C16.0066 10.7982 15.9218 10.8334 15.8334 10.8334C15.745 10.8334 15.6602 10.7982 15.5977 10.7357C15.5352 10.6732 15.5 10.5884 15.5 10.5V8.83335V8.33335H15H12.5C11.9696 8.33335 11.4609 8.12264 11.0858 7.74757C10.7108 7.3725 10.5 6.86379 10.5 6.33335V3.83335V3.33335H10H5.83337C5.47975 3.33335 5.14061 3.47383 4.89057 3.72388C4.64052 3.97393 4.50004 4.31306 4.50004 4.66669V16.3334C4.50004 16.687 4.64052 17.0261 4.89056 17.2762C5.14061 17.5262 5.47975 17.6667 5.83337 17.6667H12.5C12.5884 17.6667 12.6732 17.7018 12.7357 17.7643C12.7983 17.8268 12.8334 17.9116 12.8334 18C12.8334 18.0884 12.7983 18.1732 12.7357 18.2357C12.6732 18.2982 12.5884 18.3334 12.5 18.3334H5.83337C5.30294 18.3334 4.79423 18.1226 4.41916 17.7476C4.04409 17.3725 3.83337 16.8638 3.83337 16.3334V4.66669C3.83337 4.13625 4.04409 3.62755 4.41916 3.25247C4.79423 2.8774 5.30294 2.66669 5.83337 2.66669H10.8357C10.8587 2.67178 10.8808 2.68033 10.9013 2.69209L11.0503 2.77754L11.1037 2.76996C11.1063 2.77217 11.1088 2.77442 11.1113 2.77671ZM12.0203 4.6548L11.1667 3.80125V5.00835V6.33335C11.1667 6.68698 11.3072 7.02611 11.5572 7.27616C11.8073 7.52621 12.1464 7.66669 12.5 7.66669H13.825H15.0321L14.1786 6.81313L12.0203 4.6548ZM7.26434 14.431C7.32685 14.3685 7.41163 14.3334 7.50004 14.3334H12.5C12.5884 14.3334 12.6732 14.3685 12.7357 14.431C12.7983 14.4935 12.8334 14.5783 12.8334 14.6667C12.8334 14.7551 12.7983 14.8399 12.7357 14.9024C12.6732 14.9649 12.5884 15 12.5 15H7.50004C7.41163 15 7.32685 14.9649 7.26434 14.9024C7.20183 14.8399 7.16671 14.7551 7.16671 14.6667C7.16671 14.5783 7.20183 14.4935 7.26434 14.431ZM8.33337 8.33335H7.50004C7.41164 8.33335 7.32685 8.29823 7.26434 8.23572C7.20183 8.17321 7.16671 8.08843 7.16671 8.00002C7.16671 7.91162 7.20183 7.82683 7.26434 7.76432C7.32685 7.70181 7.41164 7.66669 7.50004 7.66669H8.33337C8.42178 7.66669 8.50656 7.70181 8.56908 7.76432C8.63159 7.82683 8.66671 7.91161 8.66671 8.00002C8.66671 8.08843 8.63159 8.17321 8.56908 8.23572C8.50656 8.29824 8.42178 8.33335 8.33337 8.33335ZM7.50004 11H12.5C12.5884 11 12.6732 11.0351 12.7357 11.0977C12.7983 11.1602 12.8334 11.2449 12.8334 11.3334C12.8334 11.4218 12.7983 11.5065 12.7357 11.5691C12.6732 11.6316 12.5884 11.6667 12.5 11.6667H7.50004C7.41163 11.6667 7.32685 11.6316 7.26434 11.5691C7.20183 11.5065 7.16671 11.4218 7.16671 11.3334C7.16671 11.2449 7.20183 11.1602 7.26434 11.0977C7.32685 11.0351 7.41163 11 7.50004 11ZM15.5977 16.0977C15.6602 16.0351 15.745 16 15.8334 16C15.9218 16 16.0066 16.0351 16.0691 16.0976C16.1316 16.1602 16.1667 16.2449 16.1667 16.3334V18C16.1667 18.0884 16.1316 18.1732 16.0691 18.2357C16.0066 18.2982 15.9218 18.3334 15.8334 18.3334C15.745 18.3334 15.6602 18.2982 15.5977 18.2357C15.5352 18.1732 15.5 18.0884 15.5 18V16.3334C15.5 16.2449 15.5352 16.1602 15.5977 16.0977Z" stroke="#616161"/>
</g>
</svg>
