<svg width="16" height="17" viewBox="0 0 16 17" fill="none" xmlns="http://www.w3.org/2000/svg">
<g id="u:lock">
<path id="Vector" d="M11.3333 6.50004V5.16671C11.3333 4.28265 10.9821 3.43481 10.357 2.80968C9.73186 2.18456 8.88401 1.83337 7.99996 1.83337C7.1159 1.83337 6.26806 2.18456 5.64294 2.80968C5.01782 3.43481 4.66663 4.28265 4.66663 5.16671V6.50004C4.13619 6.50004 3.62749 6.71075 3.25241 7.08583C2.87734 7.4609 2.66663 7.96961 2.66663 8.50004V13.1667C2.66663 13.6971 2.87734 14.2058 3.25241 14.5809C3.62749 14.956 4.13619 15.1667 4.66663 15.1667H11.3333C11.8637 15.1667 12.3724 14.956 12.7475 14.5809C13.1226 14.2058 13.3333 13.6971 13.3333 13.1667V8.50004C13.3333 7.96961 13.1226 7.4609 12.7475 7.08583C12.3724 6.71075 11.8637 6.50004 11.3333 6.50004ZM5.99996 5.16671C5.99996 4.63627 6.21067 4.12757 6.58575 3.75249C6.96082 3.37742 7.46953 3.16671 7.99996 3.16671C8.53039 3.16671 9.0391 3.37742 9.41417 3.75249C9.78925 4.12757 9.99996 4.63627 9.99996 5.16671V6.50004H5.99996V5.16671ZM12 13.1667C12 13.3435 11.9297 13.5131 11.8047 13.6381C11.6797 13.7631 11.5101 13.8334 11.3333 13.8334H4.66663C4.48981 13.8334 4.32025 13.7631 4.19522 13.6381C4.0702 13.5131 3.99996 13.3435 3.99996 13.1667V8.50004C3.99996 8.32323 4.0702 8.15366 4.19522 8.02864C4.32025 7.90361 4.48981 7.83337 4.66663 7.83337H11.3333C11.5101 7.83337 11.6797 7.90361 11.8047 8.02864C11.9297 8.15366 12 8.32323 12 8.50004V13.1667Z" fill="#6B7280"/>
</g>
</svg>
