<svg width="20" height="21" viewBox="0 0 20 21" fill="none" xmlns="http://www.w3.org/2000/svg">
<g id="u:user">
<path id="Vector" d="M1.725 17.9084L2.22195 17.9635C2.37827 16.5545 2.91402 15.2144 3.77208 14.0859C4.63014 12.9575 5.77834 12.083 7.09428 11.5558L7.89774 11.2339L7.2175 10.6987C6.4822 10.1202 5.9455 9.32692 5.68207 8.42919C5.41863 7.53145 5.44156 6.57393 5.74766 5.68983C6.05376 4.80573 6.62781 4.03903 7.38994 3.49637C8.15208 2.95372 9.06441 2.66211 10 2.66211C10.9356 2.66211 11.8479 2.95372 12.6101 3.49637C13.3722 4.03903 13.9462 4.80573 14.2523 5.68983L14.7248 5.52625L14.2523 5.68983C14.5584 6.57393 14.5814 7.53145 14.3179 8.42919C14.0545 9.32692 13.5178 10.1202 12.7825 10.6987L12.0997 11.2359L12.9072 11.5564C14.2286 12.0809 15.3824 12.955 16.2449 14.0852C17.1071 15.215 17.6456 16.5581 17.8029 17.9705C17.8121 18.0578 17.7865 18.1452 17.7317 18.2137C17.6814 18.2766 17.6102 18.3189 17.5315 18.3334L17.475 18.3333L17.472 18.3334C17.3896 18.3339 17.3099 18.3038 17.2483 18.249C17.1868 18.1943 17.1477 18.1186 17.1386 18.0367L17.1385 18.0359C16.9418 16.2847 16.1068 14.6674 14.7931 13.4929C13.4793 12.3185 11.7789 11.6692 10.0167 11.6692C8.25447 11.6692 6.55405 12.3185 5.24028 13.4929C3.92651 14.6674 3.0915 16.2847 2.89479 18.0359L2.89466 18.037C2.88485 18.1262 2.84001 18.2079 2.76999 18.264C2.69998 18.3201 2.61053 18.3462 2.52134 18.3364C2.43213 18.3265 2.35048 18.2817 2.29435 18.2117C2.26655 18.177 2.24586 18.1372 2.23344 18.0946C2.22103 18.0519 2.21714 18.0072 2.222 17.963L1.725 17.9084ZM1.725 17.9084C1.71296 18.0178 1.72259 18.1285 1.75335 18.2342C1.78411 18.3399 1.83539 18.4386 1.90426 18.5245C2.04335 18.6979 2.24565 18.809 2.46666 18.8334C2.68768 18.8577 2.9093 18.7932 3.08277 18.6541C3.25624 18.515 3.36735 18.3127 3.39166 18.0917L6.49107 10.7241C6.56764 10.6908 6.64475 10.6587 6.72238 10.6276L6.90833 11.0917L6.59916 11.4846C6.5301 11.4303 6.46247 11.3744 6.39632 11.317C5.21038 11.8873 4.17378 12.7316 3.37407 13.7833C2.46125 14.9838 1.8913 16.4094 1.725 17.9084ZM13.1873 5.037L12.7716 5.31479L13.1873 5.037C12.7661 4.40662 12.1674 3.91529 11.467 3.62515C10.7665 3.33502 9.99575 3.2591 9.25215 3.40701C8.50856 3.55492 7.82552 3.92001 7.28942 4.45611C6.75332 4.99221 6.38823 5.67525 6.24032 6.41884C6.09241 7.16244 6.16832 7.93319 6.45846 8.63364C6.7486 9.33409 7.23992 9.93278 7.87031 10.354C8.5007 10.7752 9.24184 11 10 11C11.0167 11 11.9917 10.5962 12.7106 9.87727C13.4295 9.15838 13.8333 8.18335 13.8333 7.16669C13.8333 6.40853 13.6085 5.66739 13.1873 5.037Z" fill="#42526D" stroke="#42526D"/>
</g>
</svg>
