<svg width="17" height="17" viewBox="0 0 17 17" fill="none" xmlns="http://www.w3.org/2000/svg">
<path id="Vector" d="M16.1143 12.0153C16.2997 12.0236 16.4613 12.0952 16.5944 12.2284C16.7374 12.3714 16.8083 12.5512 16.8083 12.7605C16.8083 12.9613 16.7362 13.1354 16.5944 13.2773C16.4526 13.4191 16.2784 13.4911 16.0776 13.4911H12.0393C11.8731 14.2131 11.4993 14.8188 10.9202 15.3057C10.3225 15.8081 9.62542 16.0597 8.83325 16.0597C8.04109 16.0597 7.34162 15.8082 6.73896 15.3059C6.15848 14.8222 5.78789 14.2163 5.62947 13.4911H1.60425C1.40357 13.4911 1.22766 13.4192 1.08126 13.2787C0.93387 13.1372 0.858252 12.9626 0.858252 12.7605C0.858252 12.5499 0.932603 12.3696 1.08126 12.2269C1.21721 12.0964 1.37861 12.0251 1.56166 12.0156C1.56899 12.009 1.57752 12.0014 1.58713 11.9929C1.62308 11.9612 1.67778 11.9141 1.75093 11.8518C1.89739 11.7272 2.1194 11.5405 2.41681 11.2918C2.68591 11.0668 2.90386 10.5916 3.05187 9.83246C3.1988 9.07884 3.27305 8.06644 3.27305 6.79272C3.27305 5.90164 3.39738 5.09561 3.64774 4.37584L3.64773 4.37584L3.64817 4.37463C3.90866 3.65567 4.27685 3.04122 4.75361 2.53302C5.23095 2.02421 5.81527 1.63418 6.50485 1.36253C7.19509 1.09061 7.97173 0.955664 8.83325 0.955664C9.69477 0.955664 10.4714 1.09061 11.1617 1.36253C11.8512 1.63418 12.4356 2.02421 12.9129 2.53302C13.3897 3.04122 13.7578 3.65567 14.0183 4.37462L14.0188 4.37584C14.2691 5.09561 14.3935 5.90164 14.3935 6.79272C14.3935 8.04592 14.4658 9.04567 14.6089 9.79436C14.7531 10.5482 14.9655 11.0276 15.2291 11.2632C15.5186 11.5219 15.7399 11.7152 15.8937 11.8435C15.9708 11.9079 16.0297 11.9549 16.0711 11.9855C16.0906 11.9999 16.1048 12.0095 16.1143 12.0153ZM7.18723 13.4911C7.30958 13.7873 7.50784 14.0341 7.78419 14.2328C8.09504 14.4562 8.4437 14.5677 8.83325 14.5677C9.2228 14.5677 9.57146 14.4562 9.88231 14.2328C10.1545 14.0371 10.3554 13.7904 10.4861 13.4911H7.18723ZM4.05017 11.3216L4.05017 11.3216L4.04974 11.3226C3.94244 11.5785 3.82814 11.8092 3.70664 12.0145H13.9595C13.8384 11.8115 13.7244 11.5863 13.6172 11.3391L13.6168 11.338C13.4809 11.0139 13.3614 10.6342 13.2579 10.1997C13.1542 9.76416 13.0716 9.26779 13.0097 8.71099C12.9477 8.15275 12.9168 7.5132 12.9168 6.79272C12.9168 6.09375 12.8257 5.47412 12.6451 4.9325C12.4646 4.39099 12.1999 3.93755 11.8522 3.56994C11.5042 3.20213 11.0761 2.9179 10.566 2.71779C10.0669 2.52823 9.48992 2.43228 8.83325 2.43228C8.1769 2.43228 7.60031 2.53325 7.10159 2.73274L7.10096 2.73299C6.59095 2.93299 6.16282 3.21965 5.8148 3.59252C5.46674 3.96545 5.20191 4.42167 5.02138 4.96326C4.84075 5.50516 4.74966 6.11461 4.74966 6.79272C4.74966 7.49281 4.71878 8.12208 4.65676 8.68023C4.59489 9.23703 4.51226 9.73339 4.40856 10.1689C4.30512 10.6034 4.18578 10.9878 4.05017 11.3216Z" fill="#616161" stroke="#616161" stroke-width="0.2" stroke-linejoin="round"/>
</svg>
